<svg width="308" height="310" viewBox="0 0 308 310" fill="none" xmlns="http://www.w3.org/2000/svg">
<g filter="url(#filter0_d_217_452)">
<rect x="4" width="300" height="302" rx="16" fill="#FFD991" fill-opacity="0.07" shape-rendering="crispEdges"/>
<rect x="5.5" y="1.5" width="297" height="299" rx="14.5" stroke="#DBC18F" stroke-width="3" stroke-dasharray="8 8" shape-rendering="crispEdges"/>
</g>
<path d="M123.422 182C121.532 182 120 180.468 120 178.578V123.422C120 121.532 121.571 120 123.422 120H185.578C187.468 120 189 121.533 189 123.422V178.578C189 180.468 187.429 182 185.578 182H123.422ZM182.1 161.333V126.889H126.9V175.111L161.4 140.667L182.1 161.333ZM182.1 171.076L161.4 150.409L136.658 175.111H182.1V171.076ZM140.7 147.556C136.889 147.556 133.8 144.471 133.8 140.667C133.8 136.862 136.889 133.778 140.7 133.778C144.511 133.778 147.6 136.862 147.6 140.667C147.6 144.471 144.511 147.556 140.7 147.556Z" fill="#FFD081" fill-opacity="0.47"/>
<path d="M98.24 222.6C98.24 223.733 97.9267 224.587 97.3 225.16C96.6867 225.72 95.8 226 94.64 226H94.14C92.98 226 92.0867 225.72 91.46 225.16C90.8467 224.587 90.54 223.733 90.54 222.6V212H92.28V222.98C92.28 223.393 92.4333 223.747 92.74 224.04C93.0467 224.333 93.4467 224.48 93.94 224.48H94.84C95.3333 224.48 95.7333 224.333 96.04 224.04C96.3467 223.747 96.5 223.393 96.5 222.98V212H98.24V222.6ZM103.141 216V216.48C103.554 216.16 104.087 216 104.741 216H105.461C106.634 216 107.494 216.253 108.041 216.76C108.587 217.253 108.861 218.067 108.861 219.2V222.8C108.861 223.92 108.581 224.733 108.021 225.24C107.474 225.747 106.621 226 105.461 226H103.241V229.4H101.541V216H103.141ZM104.541 217.5C104.101 217.5 103.774 217.62 103.561 217.86C103.347 218.087 103.241 218.333 103.241 218.6V224.5H105.661C106.154 224.5 106.527 224.387 106.781 224.16C107.034 223.933 107.161 223.613 107.161 223.2V218.8C107.161 218.387 107.034 218.067 106.781 217.84C106.527 217.613 106.154 217.5 105.661 217.5H104.541ZM116.642 226C116.188 226 115.788 225.84 115.442 225.52C115.108 225.2 114.942 224.693 114.942 224V213.5H112.002V212H116.642V223.9C116.642 224.113 116.695 224.267 116.802 224.36C116.908 224.453 117.088 224.5 117.342 224.5H120.002V226H116.642ZM130.522 222.8C130.522 223.92 130.242 224.733 129.682 225.24C129.136 225.747 128.282 226 127.122 226H126.462C125.302 226 124.442 225.747 123.882 225.24C123.336 224.733 123.062 223.92 123.062 222.8V219.2C123.062 218.08 123.336 217.267 123.882 216.76C124.442 216.253 125.302 216 126.462 216H127.122C128.282 216 129.136 216.253 129.682 216.76C130.242 217.267 130.522 218.08 130.522 219.2V222.8ZM128.822 218.8C128.822 218.387 128.696 218.067 128.442 217.84C128.189 217.613 127.816 217.5 127.322 217.5H126.262C125.769 217.5 125.396 217.613 125.142 217.84C124.889 218.067 124.762 218.387 124.762 218.8V223.2C124.762 223.613 124.889 223.933 125.142 224.16C125.396 224.387 125.769 224.5 126.262 224.5H127.322C127.816 224.5 128.189 224.387 128.442 224.16C128.696 223.933 128.822 223.613 128.822 223.2V218.8ZM140.543 226C140.37 226 140.176 225.947 139.963 225.84C139.763 225.733 139.59 225.587 139.443 225.4C139.136 225.8 138.73 226 138.223 226H136.443C135.43 226 134.69 225.8 134.223 225.4C133.77 224.987 133.543 224.287 133.543 223.3V222.9C133.543 220.833 134.516 219.8 136.463 219.8H138.943V218.8C138.943 218.387 138.816 218.067 138.563 217.84C138.31 217.613 137.936 217.5 137.443 217.5H134.343V216H137.243C138.403 216 139.256 216.253 139.803 216.76C140.363 217.267 140.643 218.08 140.643 219.2V224C140.643 224.2 140.716 224.353 140.863 224.46C141.023 224.553 141.283 224.6 141.643 224.6V226H140.543ZM138.023 224.5C138.423 224.5 138.676 224.407 138.783 224.22C138.89 224.033 138.943 223.793 138.943 223.5V221.3H136.443C136.096 221.3 135.81 221.413 135.583 221.64C135.356 221.867 135.243 222.153 135.243 222.5V223.5C135.243 223.847 135.323 224.1 135.483 224.26C135.643 224.42 135.896 224.5 136.243 224.5H138.023ZM150.504 225.54C150.064 225.847 149.531 226 148.904 226H148.084C146.911 226 146.051 225.753 145.504 225.26C144.957 224.753 144.684 223.933 144.684 222.8V219.2C144.684 218.08 144.957 217.267 145.504 216.76C146.064 216.253 146.924 216 148.084 216H150.404V212H152.104V226H150.504V225.54ZM149.104 224.5C149.544 224.5 149.871 224.387 150.084 224.16C150.297 223.92 150.404 223.667 150.404 223.4V217.5H147.884C147.391 217.5 147.017 217.613 146.764 217.84C146.511 218.067 146.384 218.387 146.384 218.8V223.2C146.384 223.613 146.511 223.933 146.764 224.16C147.017 224.387 147.391 224.5 147.884 224.5H149.104ZM170.945 212V213.8H169.045V212H170.945ZM166.205 217.5V216H170.845V224.5H173.805V226H169.145V217.5H166.205ZM177.766 216V216.46C178.113 216.153 178.526 216 179.006 216H179.126C180.06 216 180.72 216.267 181.106 216.8C181.546 216.267 182.126 216 182.846 216H182.966C183.78 216 184.38 216.207 184.766 216.62C185.153 217.033 185.346 217.767 185.346 218.82V226H183.746V218.8C183.746 218.253 183.686 217.873 183.566 217.66C183.46 217.447 183.206 217.34 182.806 217.34H182.686C182.286 217.34 182.006 217.48 181.846 217.76C181.7 218.027 181.62 218.327 181.606 218.66V226H180.006V218.8C180.006 218.24 179.94 217.86 179.806 217.66C179.673 217.447 179.433 217.34 179.086 217.34H178.966C178.566 217.34 178.286 217.46 178.126 217.7C177.966 217.927 177.88 218.187 177.866 218.48V226H176.266V216H177.766ZM194.547 226C194.374 226 194.18 225.947 193.967 225.84C193.767 225.733 193.594 225.587 193.447 225.4C193.14 225.8 192.734 226 192.227 226H190.447C189.434 226 188.694 225.8 188.227 225.4C187.774 224.987 187.547 224.287 187.547 223.3V222.9C187.547 220.833 188.52 219.8 190.467 219.8H192.947V218.8C192.947 218.387 192.82 218.067 192.567 217.84C192.314 217.613 191.94 217.5 191.447 217.5H188.347V216H191.247C192.407 216 193.26 216.253 193.807 216.76C194.367 217.267 194.647 218.08 194.647 219.2V224C194.647 224.2 194.72 224.353 194.867 224.46C195.027 224.553 195.287 224.6 195.647 224.6V226H194.547ZM192.027 224.5C192.427 224.5 192.68 224.407 192.787 224.22C192.894 224.033 192.947 223.793 192.947 223.5V221.3H190.447C190.1 221.3 189.814 221.413 189.587 221.64C189.36 221.867 189.247 222.153 189.247 222.5V223.5C189.247 223.847 189.327 224.1 189.487 224.26C189.647 224.42 189.9 224.5 190.247 224.5H192.027ZM206.348 226.7C206.348 227.607 206.074 228.28 205.528 228.72C204.994 229.173 204.154 229.4 203.008 229.4H198.848V227.9H203.208C203.688 227.9 204.048 227.807 204.288 227.62C204.528 227.433 204.648 227.193 204.648 226.9V226.26C204.648 225.953 204.528 225.713 204.288 225.54C204.048 225.353 203.688 225.26 203.208 225.26H199.748V222.5C199.308 222.26 198.981 221.913 198.768 221.46C198.554 221.007 198.448 220.42 198.448 219.7V219.2C198.448 218.08 198.721 217.267 199.268 216.76C199.828 216.253 200.688 216 201.848 216H206.048V219.7C206.048 220.7 205.774 221.487 205.228 222.06C204.681 222.62 203.954 222.9 203.048 222.9H201.448V223.76H203.008C204.154 223.76 204.994 223.987 205.528 224.44C206.074 224.88 206.348 225.553 206.348 226.46V226.7ZM203.048 221.4C203.461 221.4 203.774 221.267 203.988 221C204.201 220.733 204.321 220.453 204.348 220.16V217.5H201.648C201.154 217.5 200.781 217.613 200.528 217.84C200.274 218.067 200.148 218.387 200.148 218.8V220.1C200.148 220.513 200.274 220.833 200.528 221.06C200.781 221.287 201.154 221.4 201.648 221.4H203.048ZM213.089 226C211.915 226 211.055 225.753 210.509 225.26C209.962 224.753 209.689 223.933 209.689 222.8V219.2C209.689 218.053 209.935 217.233 210.429 216.74C210.922 216.247 211.742 216 212.889 216H213.829C214.775 216 215.489 216.267 215.969 216.8C216.462 217.32 216.709 218.087 216.709 219.1V221.7H211.389V223.2C211.389 223.613 211.515 223.933 211.769 224.16C212.022 224.387 212.395 224.5 212.889 224.5H216.069V226H213.089ZM215.049 218.7C215.049 218.353 214.935 218.067 214.709 217.84C214.482 217.613 214.195 217.5 213.849 217.5H212.689C212.209 217.5 211.869 217.613 211.669 217.84C211.482 218.053 211.389 218.373 211.389 218.8V220.2H215.049V218.7Z" fill="#393939" fill-opacity="0.78"/>
<defs>
<filter id="filter0_d_217_452" x="0" y="0" width="308" height="310" filterUnits="userSpaceOnUse" color-interpolation-filters="sRGB">
<feFlood flood-opacity="0" result="BackgroundImageFix"/>
<feColorMatrix in="SourceAlpha" type="matrix" values="0 0 0 0 0 0 0 0 0 0 0 0 0 0 0 0 0 0 127 0" result="hardAlpha"/>
<feOffset dy="4"/>
<feGaussianBlur stdDeviation="2"/>
<feComposite in2="hardAlpha" operator="out"/>
<feColorMatrix type="matrix" values="0 0 0 0 0 0 0 0 0 0 0 0 0 0 0 0 0 0 0.25 0"/>
<feBlend mode="normal" in2="BackgroundImageFix" result="effect1_dropShadow_217_452"/>
<feBlend mode="normal" in="SourceGraphic" in2="effect1_dropShadow_217_452" result="shape"/>
</filter>
</defs>
</svg>
